<?xml version="1.0" encoding="UTF-8" standalone="no"?>
<svg width="1200" height="800" xmlns="http://www.w3.org/2000/svg">
    <!-- Background -->
    <rect width="100%" height="100%" fill="#1a1a1a"/>
    
    <!-- Title -->
    <text x="600" y="50" font-family="Arial" font-size="24" fill="white" text-anchor="middle">
        Camera Transform System: Real → Virtual Projection
    </text>

    <!-- Physical Space (Left) -->
    <g transform="translate(200,200)">
        <!-- Bridge -->
        <rect x="-100" y="-20" width="200" height="10" fill="#4287f5" opacity="0.8"/>
        
        <!-- Real Camera -->
        <g transform="translate(0,-15)">
            <path d="M-10,0 L10,0 L0,-20 Z" fill="red"/>
            <text x="20" y="-10" font-family="Arial" font-size="14" fill="white">Real Camera</text>
            <!-- View Frustum -->
            <path d="M0,-5 L-50,50 L50,50 Z" fill="red" opacity="0.2" stroke="red" stroke-width="1"/>
        </g>

        <!-- Pedestrians -->
        <g transform="translate(0,50)">
            <circle cx="-30" cy="0" r="5" fill="yellow"/>
            <circle cx="10" cy="10" r="5" fill="yellow"/>
            <circle cx="40" cy="-10" r="5" fill="yellow"/>
            <text x="60" y="0" font-family="Arial" font-size="14" fill="white">Pedestrians</text>
        </g>
    </g>

    <!-- Transform Process (Middle) -->
    <g transform="translate(600,200)">
        <!-- Matrix Transform -->
        <rect x="-150" y="-100" width="300" height="200" fill="none" stroke="#00ff00" stroke-width="2"/>
        <text x="0" y="-120" font-family="Arial" font-size="18" fill="#00ff00" text-anchor="middle">
            Transform Pipeline
        </text>
        
        <!-- Matrix Equations -->
        <text x="0" y="-50" font-family="monospace" font-size="14" fill="white" text-anchor="middle">
            P' = M_virtual * M_real^-1 * P
        </text>
        <text x="0" y="0" font-family="monospace" font-size="14" fill="white" text-anchor="middle">
            where:
        </text>
        <text x="0" y="30" font-family="monospace" font-size="14" fill="white" text-anchor="middle">
            M_real = perspective matrix
        </text>
        <text x="0" y="60" font-family="monospace" font-size="14" fill="white" text-anchor="middle">
            M_virtual = orthographic matrix
        </text>
    </g>

    <!-- Virtual Space (Right) -->
    <g transform="translate(1000,200)">
        <!-- Virtual View -->
        <rect x="-100" y="-100" width="200" height="200" fill="none" stroke="#00ffff" stroke-width="2"/>
        
        <!-- Orthographic Camera -->
        <g transform="translate(0,-120)">
            <rect x="-15" y="-10" width="30" height="20" fill="#00ffff"/>
            <text x="20" y="0" font-family="Arial" font-size="14" fill="white">Virtual Camera</text>
        </g>

        <!-- Transformed Pedestrians -->
        <circle cx="-30" cy="30" r="5" fill="yellow"/>
        <circle cx="10" cy="-10" r="5" fill="yellow"/>
        <circle cx="40" cy="40" r="5" fill="yellow"/>
    </g>

    <!-- Flow Arrows -->
    <g stroke="white" stroke-width="2" fill="none">
        <!-- Real to Transform -->
        <path d="M400,200 C450,200 500,200 550,200" marker-end="url(#arrowhead)"/>
        <!-- Transform to Virtual -->
        <path d="M800,200 C850,200 900,200 950,200" marker-end="url(#arrowhead)"/>
    </g>

    <!-- Arrowhead Marker -->
    <defs>
        <marker id="arrowhead" markerWidth="10" markerHeight="7" refX="9" refY="3.5" orient="auto">
            <polygon points="0 0, 10 3.5, 0 7" fill="white"/>
        </marker>
    </defs>

    <!-- Feedback Loop -->
    <path d="M1000,400 C1000,500 200,500 200,400" 
          stroke="#ff00ff" stroke-width="2" fill="none" 
          marker-end="url(#arrowhead)" stroke-dasharray="5,5"/>
    <text x="600" y="520" font-family="Arial" font-size="14" fill="#ff00ff" text-anchor="middle">
        Continuous Update Loop (60fps)
    </text>

    <!-- Legend -->
    <g transform="translate(50,700)">
        <text x="0" y="0" font-family="Arial" font-size="16" fill="white">Legend:</text>
        <rect x="0" y="20" width="20" height="20" fill="red"/>
        <text x="30" y="35" font-family="Arial" font-size="14" fill="white">Real Camera Space</text>
        
        <rect x="200" y="20" width="20" height="20" fill="#00ff00"/>
        <text x="230" y="35" font-family="Arial" font-size="14" fill="white">Transform Process</text>
        
        <rect x="400" y="20" width="20" height="20" fill="#00ffff"/>
        <text x="430" y="35" font-family="Arial" font-size="14" fill="white">Virtual Camera Space</text>
        
        <path d="M600,20 L620,40" stroke="#ff00ff" stroke-width="2" stroke-dasharray="5,5"/>
        <text x="630" y="35" font-family="Arial" font-size="14" fill="white">Feedback Loop</text>
    </g>

    <!-- Notes -->
    <g transform="translate(50,600)">
        <text x="0" y="0" font-family="Arial" font-size="14" fill="white">Key Steps:</text>
        <text x="0" y="25" font-family="Arial" font-size="12" fill="white">1. Capture real camera view (perspective projection)</text>
        <text x="0" y="45" font-family="Arial" font-size="12" fill="white">2. Extract world coordinates of pedestrians</text>
        <text x="0" y="65" font-family="Arial" font-size="12" fill="white">3. Apply inverse perspective transform</text>
        <text x="0" y="85" font-family="Arial" font-size="12" fill="white">4. Project to orthographic virtual view</text>
        <text x="0" y="105" font-family="Arial" font-size="12" fill="white">5. Update continuously for smooth animation</text>
    </g>
</svg>
